<?xml version="1.0" encoding="UTF-8" standalone="no"?>
<svg
   id="eCa0hviB5YD1"
   viewBox="0 0 62 62"
   shape-rendering="geometricPrecision"
   text-rendering="geometricPrecision"
   version="1.1"
   sodipodi:docname="svgring.svg"
   inkscape:version="1.1.1 (3bf5ae0d25, 2021-09-20)"
   xmlns:inkscape="http://www.inkscape.org/namespaces/inkscape"
   xmlns:sodipodi="http://sodipodi.sourceforge.net/DTD/sodipodi-0.dtd"
   xmlns="http://www.w3.org/2000/svg"
   xmlns:svg="http://www.w3.org/2000/svg">
  <defs
     id="defs1831" />
  <sodipodi:namedview
     id="namedview1829"
     pagecolor="#ffffff"
     bordercolor="#666666"
     borderopacity="1.0"
     inkscape:pageshadow="2"
     inkscape:pageopacity="0.0"
     inkscape:pagecheckerboard="0"
     showgrid="false"
     inkscape:zoom="18.435484"
     inkscape:cx="36.966754"
     inkscape:cy="31.596675"
     inkscape:window-width="2560"
     inkscape:window-height="1361"
     inkscape:window-x="-9"
     inkscape:window-y="-9"
     inkscape:window-maximized="1"
     inkscape:current-layer="layer2" />
  <g
     inkscape:groupmode="layer"
     id="layer2"
     inkscape:label="Layer 2"
     style="display:inline">
    <polygon
       id="eCa0hviB5YD2"
       points="0,-7.535729 6.526133,-3.767864 6.526133,3.767865 0,7.535729 -6.526133,3.767865 -6.526133,-3.767864 "
       transform="matrix(3.608381,0,0,3.608381,31,31)"
       fill="none"
       stroke="#111111"
       stroke-width="1"
       stroke-linejoin="round"
       style="stroke:#444444;stroke-opacity:1" />
    <line
       id="eCa0hviB5YD5"
       x1="0"
       y1="-11"
       x2="0"
       y2="11"
       transform="rotate(59.999988,-21.086631,59.2169)"
       fill="none"
       stroke="#111111"
       stroke-width="2.5"
       stroke-linecap="round"
       style="stroke:#444444;stroke-opacity:1" />
    <line
       id="eCa0hviB5YD4"
       x1="0"
       y1="-11"
       x2="0"
       y2="11"
       transform="rotate(-59.999988,32.606956,-28.216878)"
       fill="none"
       stroke="#111111"
       stroke-width="2.5"
       stroke-linecap="round"
       style="stroke:#444444;stroke-opacity:1" />
    <line
       id="eCa0hviB5YD3"
       x1="0"
       y1="-11"
       x2="0"
       y2="11"
       transform="translate(11.516577,31)"
       fill="none"
       stroke="#111111"
       stroke-width="2.5"
       stroke-linecap="round"
       style="stroke:#444444;stroke-opacity:1" />
  </g>
  <g
     style="shape-rendering:geometricPrecision;text-rendering:geometricPrecision"
     id="g2014"
     transform="matrix(0.11003645,0,0,0.11003645,2.1331745,3.3752674)">
    <g
       id="eVtN4Jmnf8O2"
       transform="matrix(0.1,0,0,-0.1,0,512)">
      <path
         id="eVtN4Jmnf8O4"
         d="m 1373,2608 c -48,-23 -12,-129 58,-174 188,-118 430,-172 580,-128 86,25 207,93 270,152 48,44 59,60 59,86 0,67 -41,72 -185,19 -99,-36 -102,-36 -283,-40 l -183,-5 -97,32 c -53,18 -111,41 -128,51 -35,21 -58,23 -91,7 z"
         fill="#000000"
         stroke="none"
         stroke-width="1"
         style="fill:#444444;fill-opacity:1" />
    </g>
  </g>
  <g
     inkscape:groupmode="layer"
     id="layer1"
     inkscape:label="Layer 1"
     sodipodi:insensitive="true">
    <g
       style="fill:#000000;shape-rendering:geometricPrecision;text-rendering:geometricPrecision"
       id="g2022"
       transform="matrix(-0.11004761,0,0,0.11003678,57.976077,5.8886579)">
      <g
         id="g2020"
         transform="matrix(0.1,0,0,-0.1,0,512)"
         style="fill:#000000">
        <path
           id="path2016"
           d="m 1846,3371 c -61,-60 -121,-114 -134,-120 -13,-7 -69,-28 -125,-48 -97,-34 -108,-36 -239,-37 -148,-1 -153,-3 -178,-64 -21,-49 -12,-92 25,-129 l 54.8182,-26.9475 L 1348,2942 c 100,3 131,9 212,37 52,18 122,48 156,66 116,65 304,295 304,374 0,41 -14,61 -44,61 -11,0 -65,-45 -130,-109 z"
           fill="#000000"
           stroke="none"
           stroke-width="1"
           stroke-linecap="round"
           stroke-linejoin="round"
           transform="translate(-236.9712,335.13247)"
           style="fill:#444444;fill-opacity:1;stroke:#999999" />
      </g>
    </g>
  </g>
  <g
     inkscape:groupmode="layer"
     id="layer3"
     inkscape:label="Layer 3"
     transform="matrix(-0.11004761,0,0,0.11003678,58.318926,3.7991378)"
     sodipodi:insensitive="true">
    <path
       id="path2018"
       d="m 124.34911,246.36126 c -4.8,2.3 -1.2,12.90001 5.8,17.40001 18.8,11.8 43,17.2 57.99999,12.8 8.6,-2.5 20.7,-9.3 27,-15.2 4.8,-4.4 5.9,-6 5.9,-8.6 0,-6.70001 -4.1,-7.20001 -18.5,-1.9 -9.9,3.6 -10.2,3.6 -28.29999,4 l -18.3,0.5 -9.7,-3.2 c -5.3,-1.8 -11.1,-4.10001 -12.8,-5.10001 -3.5,-2.1 -5.8,-2.3 -9.1,-0.7 z"
       fill="#000000"
       stroke="none"
       stroke-width="0.1"
       style="fill:#444444;fill-opacity:1;shape-rendering:geometricPrecision;text-rendering:geometricPrecision" />
    <path
       id="eVtN4Jmnf8O3"
       d="m 334.02073,160.61939 c 6.09938,5.99999 12.09877,11.39997 13.39864,11.99997 1.29987,0.7 6.89931,2.8 12.49874,4.79999 9.69902,3.39999 10.79891,3.59999 23.89759,3.69999 14.7985,0.1 15.29845,0.3 17.7982,6.39999 2.09979,4.89998 1.19988,9.19997 -2.49975,12.89996 l -5.48127,2.69475 -9.81718,0.40525 c -9.99899,-0.3 -13.09868,-0.9 -21.19786,-3.7 -5.19948,-1.79999 -12.19877,-4.79998 -15.59843,-6.59998 -11.59883,-6.49998 -30.39693,-29.49993 -30.39693,-37.39991 0,-4.09999 1.39986,-6.09998 4.39956,-6.09998 1.09989,0 6.49934,4.49999 12.99869,10.89997 z"
       fill="#000000"
       stroke="none"
       stroke-width="0.0999948"
       stroke-linecap="round"
       stroke-linejoin="round"
       style="fill:#444444;fill-opacity:1;shape-rendering:geometricPrecision;text-rendering:geometricPrecision" />
  </g>
  <rect
     style="fill:#444444;fill-rule:evenodd;stroke:#444444;stroke-width:0.822875;stroke-opacity:1;fill-opacity:1"
     id="rect2046"
     width="7.1604443"
     height="2.672164"
     x="27.419775"
     y="38.411358" />
  <ellipse
     style="fill:#444444;fill-rule:evenodd;stroke:#444444;stroke-width:0.933135;stroke-opacity:1;fill-opacity:1"
     id="path2092"
     cx="26.974157"
     cy="39.74744"
     rx="1.5075904"
     ry="1.2851799" />
  <ellipse
     style="fill:#444444;fill-rule:evenodd;stroke:#444444;stroke-width:0.933135;stroke-opacity:1;fill-opacity:1"
     id="circle2094"
     cx="35.025841"
     cy="39.74744"
     rx="1.5075904"
     ry="1.2851799" />
</svg>